<svg id="Layer_1" data-name="Layer 1" xmlns="http://www.w3.org/2000/svg" viewBox="0 0 821.81 821.81"><defs><style>.cls-1{fill:#29aae1;}.cls-2{fill:#2aaae1;}.cls-3{fill:#4d4d4d;}.cls-4{fill:#fd0101;}.cls-5{fill:#9f8bc4;}.cls-6{fill:#f9ec23;}.cls-7{fill:#020304;}.cls-8{fill:#b89ac8;}.cls-9{fill:#020202;}.cls-10{fill:#29a5da;}.cls-11{fill:#9f8ac4;}.cls-12{fill:#eff0f0;}.cls-13{fill:#0102fc;}</style></defs><path class="cls-1" d="M613,101.1h53c.52,1.21,1.63.92,2.57,1A402.94,402.94,0,0,1,779,125.18,409.3,409.3,0,0,1,941.48,232.76a424.09,424.09,0,0,1,59.49,82.4q-19.14,12.6-38.28,25.19C948,350,933.19,359.61,918,369.54c8,4.09,15.45,8.09,23.08,11.67,3.24,1.53,3.33,3,1.89,6Q872.79,535.35,802.8,683.56c-4.34,9.19-8.75,18.35-13.58,28.48l-42.4-127.11-1.33-.77a8.2,8.2,0,0,1-1,2.33q-26.29,29.41-52.68,58.74-26.22,29.12-52.56,58.12c-9.65-45.76-24.42-90-39.27-134.26-1.36-4.07-3.52-6.46-8.13-4.24.3-1.12.56-2.25.89-3.36,2.57-8.58-5.83-26-15-27.31-4.16-.56-6.44-2.57-7.69-6.28.14-1.26.28-2.51.48-4.22,1.93,1.12,3.5,2,5,2.92l29.25,18.06c2.61,1.61,5.26,1.7,7-1.09s.79-5.11-1.89-6.81c-.71-.44-1.4-.9-2.11-1.34-14.28-8.8-28.63-17.49-42.81-26.45-6.7-4.22-14.08-7.48-19.36-13.83-1.89-2.27-5-3.33-8-3.74a23.65,23.65,0,0,1-7.06-2.28c-15.41-7.38-31.51-11.33-48.71-9.9.9-2.27,1.46-4.64-.83-6.35s-4.69-1.19-6.92.41c-1.35,1-2.76,1.85-4.1,2.84-3.08,2.26-6.13,4.55-10.16,7.55a256.07,256.07,0,0,0,3-35.55c.06-2,1.14-2.92,2.68-3.76,13.74-7.46,23.78-18.62,31.4-32C507.3,394,513.56,374,518.09,353.48c3.36-15.18,4.6-30.48,1.95-46-1.92-11.21-6.83-21.11-13-30.48a2.06,2.06,0,0,0-.94-2h0c-2-4.6-1.5-9.09-.49-14,2.7-13-9.9-23.91-22.6-20.09a11.39,11.39,0,0,1-2.29-.86A220.09,220.09,0,0,0,387,205.71c-3.78-.49-6,.46-7.94,3.37-9.16.09-17.56,2.79-19.85,12.37-1.84,7.7-7.75,11.86-12.55,15.69a240,240,0,0,1-20.95,15c-2.18,1.38-3.82,3.74-6.72,3.89a42.21,42.21,0,0,1,2.44-3.7,404.78,404.78,0,0,1,67.91-66q90.09-68.9,202.71-82.49C599.05,103,606.24,103.58,613,101.1ZM664.9,280.16c-6.21.51-15.21.9-24.11,2-14.59,1.88-28.64,5.44-41.35,13.51-23.61,15-27.26,57.38,2.44,73.17A106.31,106.31,0,0,0,617.81,376c14.59,4.87,29.66,7.44,44.89,9.07,7,.74,7,.6,5.87,7.77-.87,5.76-1.55,11.55-2.45,17.3-.39,2.57,0,3.89,3.07,4.16A166.4,166.4,0,0,1,687,416.69c3.4.65,4.33-.6,4.69-3.61.86-7.26,2-14.5,2.85-21.77.31-2.79,1.42-3.62,4.12-3.26,5.94.8,11.93,1.2,17.86,2.07,11,1.62,22.16,2.89,32.33,7.9,10.8,5.32,11.62,16.19,1.92,23.41a40.64,40.64,0,0,1-14,6.5A152.53,152.53,0,0,1,672,430.8c-28.86-4.78-53.59-16.73-69.29-42.94-1.28-2.13-2.46-2-4.45-1.12-4.84,2.2-9.7,4.41-14.72,6.12-4,1.35-5,2.9-3.26,7.1,5.79,14.3,6.73,28.76-.48,43-1.14,2.24-.46,3.2,1.33,4.38,4.45,2.92,8.9,5.86,13.16,9.05,2.07,1.56,3.21,1.38,4.83-.6,3.79-4.63,8-8.94,11.73-13.62,2-2.46,3.42-3.26,6.46-1.4A68,68,0,0,0,629,446.14c38.26,14.23,77.41,14.9,117,7.22,14.52-2.82,28-8.16,39.48-18.05,18.44-16,19.72-48.74-5.91-63.16A93.15,93.15,0,0,0,766.53,366c-20.3-7.56-41.57-10.37-62.9-12.74-3.09-.34-4-1.15-3.41-4.26,1.13-6.55,1.8-13.18,2.83-19.76.44-2.8.05-4.18-3.3-4.39-6.14-.39-12.27-1.17-18.34-2.15-2.61-.43-3.53.13-3.82,2.73-.74,6.44-2.14,12.84-2.43,19.3-.24,5.15-2.34,6.1-6.83,5.24-6.21-1.19-12.51-1.86-18.71-3.07-6.7-1.3-13.34-3-19.29-6.5-10.43-6.19-11-18.91-1-25.91A37.35,37.35,0,0,1,642.08,309c12.72-3.16,25.7-3.6,38.69-3.4,35.49.54,65.13,12.34,83.92,44.46,1.3,2.22,2.5,2.55,4.76,1.52,5.14-2.34,10.33-4.62,15.62-6.57,3.17-1.17,3.86-2.25,2.36-5.63-6.44-14.56-7.19-29.26.33-43.78,1-2,1-3.16-1-4.46-4.62-3-9.17-6.05-13.6-9.3-2.19-1.61-3.36-.92-4.9.9-3.87,4.58-8,8.91-11.9,13.48-1.58,1.87-2.85,2.1-5.05.88a111.49,111.49,0,0,0-12.56-6.05C715.9,281.89,691.91,280.2,664.9,280.16Z" transform="translate(-229.1 -101.1)"/><path class="cls-1" d="M1050.9,486v53c-1.58.83-.93,2.35-1,3.56a386,386,0,0,1-8.33,57.24c-24.34,106.08-81.2,190.4-170.77,252.15C813.07,891.73,748.85,914.4,679,921.13c-4.33.41-8.89-.33-13,1.77H613c-.38-1-1.24-.94-2.06-1a424.68,424.68,0,0,1-63.07-9.31c18.4-8,36.8-16,54.36-25.77,18.6-10.35,37.4-20.49,52.93-35.33,25.4-24.28,23.73-45.3,16.14-70-.94-3.06-3-4.47-6.08-3.46-2.76.92-3.66,3.15-2.88,6,.53,1.92.95,3.87,1.42,5.8-3.87-5.18-9.38-8.24-14.76-11.47-.27-2.46,2-3.2,3.17-4.73,4.48.26,6.16-1.93,5.42-6.22,21.92-24.54,43.85-49.08,66.28-74.17l56.34,168.93c.79-1.57,1.17-2.3,1.53-3Q861.82,689.85,941.9,520.48q25.44-53.84,50.82-107.69c1.49-3.19,2.44-4.42,6-2.21,4.6,2.85,9.69,4.92,14.93,7.5-.68-13.78-1.14-27-2.13-40.26-.29-3.83.46-7.51-.13-11.55a163.26,163.26,0,0,1-1.66-32.21c1.3.08,1.43,1.27,1.82,2.09A410.13,410.13,0,0,1,1049,472C1049.5,476.67,1048.94,481.52,1050.9,486Z" transform="translate(-229.1 -101.1)"/><path class="cls-2" d="M234.32,577.75q-3-18-4.22-36.23c-.07-.94.19-2-1-2.53V485c2-3.78,1.4-8,1.78-12A407.26,407.26,0,0,1,271,330.93a396.17,396.17,0,0,1,30.78-52.39c.65-.94,1.06-2.09,2.26-2.54q-1.49,7.56-3,15.12c-6,0-7.43,1.17-7.88,7-.38,4.81-.91,9.62-.85,14.43.26,19.75,4.3,38.9,9.64,57.83,6.72,23.81,14.88,47.21,19.75,71.56,3.44,17.21,1.67,34.51,2.39,51.76-3-1.95-5.71-.74-8.45.6-10.05,4.89-19,11.55-28.2,17.76Q266,526.5,244.57,541c-2.5,1.69-6,4-3.46,6.94,2.65,3.07,4.22,7.27,8.19,9.17-.2,1.85-1.75,2.73-2.84,3.92C241.79,566.15,237.29,571.39,234.32,577.75Z" transform="translate(-229.1 -101.1)"/><path class="cls-3" d="M234.32,577.75c3-6.36,7.47-11.6,12.14-16.72,1.09-1.19,2.64-2.07,2.83-3.92a134.58,134.58,0,0,0,46.08,16.78c3,.51,3.73,1.29,2.44,4.08-1.54,3.31-2.85,6.73-4.17,10.14-1.13,2.89-1.25,5.84,2,7.27s5.3-.79,6.51-3.63q3.7-8.71,7.26-17.5c2.15-5.33.77-7.49-5-8.32-16.74-2.43-32.8-7-47.52-15.58C262,544.64,268.51,540.27,273,534c12-10.18,25.91-17.74,38.67-26.88,4.13-3,7.29-2.54,11,.72,9.05,8,18.33,15.79,27.53,23.66,2.65,2.27,6.17,3.7,7.32,7.45l1.63,1.05-.08-.08a1.58,1.58,0,0,0,2.47,1.07l.42.07.13.41c-.38,1-.19,1.63,1.06,1.5l0,0c-.4,1.08-.08,1.44,1,1h0c.39,3,2.52,4.17,5.05,5l-.08-.06c.25,1.11.56,2.13,2,1l0,0c-.39,2.11.84,2.29,2.43,2.06,5.85,5.33,12.15,10.14,18.22,15.2,15.45,12.89,30.78,26,45.33,39.84,3.91,3.72,7,7.7,11.78,11,9,6.29,16.06,15.35,22.51,24.51s6.51,9.32.13,18.5c-.19.28-.44.51-.62.79-1.35,2.09-1.29,4.17.46,5.91,1.95,1.94,4.25,1.78,6.35.24a14.37,14.37,0,0,0,2.63-3q44.88-59.29,89.73-118.6c3.66-4.84,2.74-7.22-3.11-9.55-4.17-1.67-8.51-3.24-11.82-7.08,5.15-2.09,10.49,2,14.84-1.87,1.25,3.71,3.53,5.72,7.69,6.28,9.19,1.26,17.59,18.73,15,27.31-.33,1.11-.59,2.24-.89,3.36-3.87,3.78.31,7.43.19,11.15-1.09,14.38,2.64,27.89,6.84,41.45C605.81,640,612,662.71,618.8,685.29c1.61,5.38,4.08,10.54,9.27,13.68l-.1-.08.78.83,2.55,12.35q-21.54,25.2-44.27,49.31a7.31,7.31,0,0,0-2.93-7c-6.5-5.42-12.92-11-19.38-16.45,0-5.6-4.05-4.72-7.54-4.76-1-.49-2.13-.92-3.14-1.47a58,58,0,0,0-35.11-6.53c-3.2.4-6.7,1.27-6.54,5.37.14,3.79,3.34,4.48,6.52,4.62-4.43,3.21-6,8-7.42,13-1.49-9.68-3.06-19.34-4.43-29-.59-4.16-2.64-6.15-6.9-6.21-14.47-.19-28.94-.68-43.42-.74-43.46-.17-86.92-.23-130.38-1.11-9-.18-18,0-27-.11-3.07,0-5.49,1.25-5.82,4.27s1.72,4.81,4.91,5c1.66.09,3.3.52,4.94.52,43.8.14,87.59.17,131.38,1q28.74.53,57.47.11c4.86-.06,6.34,1.84,6.8,6.14.69,6.44,1.91,12.81,2.61,19.25,1.2,11,3,22,3.18,33.2l-2.8,22.75c-2.76,1.83-5.91,4.54-3.56,7.53,2.73,3.47.61,5-.83,7.36a34.18,34.18,0,0,0-3,5.71c-.89,2.41-2.36,3.19-4.88,3.19q-51.88-.15-103.77-.16c-1.69-1.31-3.3-2.73-5.07-3.92-29.86-20-54.9-44.76-73.67-75.55-10.49-17.19-20.65-34.58-31.11-51.78-4.3-7.08-7.73-14.71-13.11-21.11l0,.07-1-2.06,0,.06-.91-1.7c-5-9.19-10.56-18-14.58-27.72-3.81-9.18-6-18.63-5.38-28.61A17.43,17.43,0,0,0,237.43,602C231.8,594.73,232.14,586.26,234.32,577.75Zm77.14,18.38a31.28,31.28,0,0,0-5.48.06c-2.89.51-5.15,2.2-4.61,5.41a4.69,4.69,0,0,0,6,3.91c6.65-1.44,12.6.81,18.31,3.38q67.13,30.33,131.78,65.62c6.86,3.75,13.68,7.59,20.57,11.29,2.75,1.47,5.81,2.53,7.89-.9,2.3-3.81-.47-5.77-3.32-7.5-.43-.26-.89-.46-1.33-.7-47.44-26.35-95.89-50.72-145.13-73.53C328.31,599.55,320.45,595.75,311.46,596.13ZM558.4,647.5c-1.11,2.87-2.09,5.38-3.21,8.27C560,654.24,560.15,653.93,558.4,647.5Z" transform="translate(-229.1 -101.1)"/><path class="cls-4" d="M587,761.38q22.76-24.09,44.26-49.31a46,46,0,0,0,7.94-8.72q26.29-29.05,52.56-58.12,26.41-29.31,52.68-58.74a8.2,8.2,0,0,0,1-2.33l1.33.77L789.22,712c4.83-10.13,9.24-19.29,13.58-28.48q70.05-148.18,140.13-296.35c1.44-3,1.35-4.47-1.89-6-7.63-3.58-15.06-7.58-23.08-11.67,15.23-9.93,30-19.54,44.73-29.19q19.17-12.56,38.28-25.19l6.88-3.85c.5,7.1,1,13.81,1.45,20.52,0,.83-.75,1.8.56,2.29l-.13-.06a163.26,163.26,0,0,0,1.66,32.21c.59,4-.16,7.72.13,11.55,1,13.22,1.45,26.48,2.13,40.26-5.24-2.58-10.33-4.65-14.93-7.5-3.56-2.21-4.51-1-6,2.21Q967.45,466.7,941.9,520.48,861.83,689.85,781.75,859.2c-.36.75-.74,1.48-1.53,3L723.88,693.32c-22.43,25.09-44.36,49.63-66.28,74.17l-5.42,6.22c-1.13,1.53-3.44,2.27-3.17,4.73a94.59,94.59,0,0,0-10.71,10.29Q595.73,836.34,553,883.82c-1.75,2-3,3.17-5.56.8q-18.2-16.71-36.7-33.08c-1.86-1.65-1.9-2.71-.32-4.4,3.3-3.52,6.52-7.12,9.72-10.73q21.57-24.21,43.1-48.45a95.74,95.74,0,0,0,11-12.24l1.41-1.42Q581.36,767.85,587,761.38Z" transform="translate(-229.1 -101.1)"/><path class="cls-5" d="M301.1,291.12q1.48-7.56,3-15.12l0,.06c1.15-.26,1-1.22,1.09-2l-.05.08,1.05-1.41a65.81,65.81,0,0,1,9.42-12.6,2.2,2.2,0,0,0,1.58-2.07l-.06.08,1-1.09-.07.06c.68,0,1.06-.36,1-1.07l-.06,0c2.9-.15,4.54-2.51,6.72-3.89a240,240,0,0,0,20.95-15c4.8-3.83,10.71-8,12.55-15.69,2.29-9.58,10.69-12.28,19.85-12.37.56,3.89,2.9,5.6,6.74,6a201.51,201.51,0,0,1,63.73,18.26,186.28,186.28,0,0,1,32.6,19.12c2.81,2.09,5.59,2.26,7.76-.88s0-5-2.39-6.88C486,243.52,483.86,243,483,241c12.7-3.82,25.3,7.14,22.6,20.09-1,4.88-1.55,9.37.49,14-4.39-1-6.21-5.27-9.51-7.71-12.1-9-25.72-14.32-40.36-17.44-12.64-2.69-25.18-6-38.23-5.78-16.52.28-29.51,15.94-26.85,32.18.47,2.87,2,5.83,4.93,5.26,4.81-.94,4.1,1.91,4,4.48-.6,11.58-1.56,23.15-1.89,34.74-.37,12.61-1.65,25.18-1.85,37.75-.3,18.85-3.87,37.62-1.48,56.6-1.73.06-2.85-1.05-4-1.92a64.56,64.56,0,0,0-24.09-11.51c-3.88-1-7.12-.59-8.22,3.1-1.19,4,2.36,5.36,5.58,6.07a56.15,56.15,0,0,1,28.57,16.32c1.39,1.42,2.68,3,5,2.87,1.7-.1,2.58,1,3.56,2.25,12.2,15.69,28.24,21.3,47.63,18,1.47-.26,3-.62,4.14.81-5.56,2-6.94,5.89-3.44,9.79a33.2,33.2,0,0,0,3.33,2.91c-1,7.2-3.32,14.58-2.4,21.52.72,5.41-1.45,7.5-4.53,10.12-1.89,1.61-3.93,3-5.87,4.58-10.74,8.54-21.49,17.07-32.17,25.69-2.26,1.83-4.22,3.92-1.61,7.12,2.46,3,4.64,1.84,7.32.23,3.64-2.19,6-6.3,10.63-7-1.54,3.55-4.13,6.68-4.21,10.8-3.64,0-7.28,0-10.92,0-5.77.09-6.6,1.56-6.21,7.21.28,4,5.07,6.62,2.88,11.08-4.16,2.1-8.6-.35-12.82.76a33.06,33.06,0,0,1-6.94-6.15c-.63.13-.94-.11-.92-.76l-.06,0-1.07-1,0,.14c-.76-5.33-2.85-10.49-1.15-16.1.91-3-1.14-3.11-3.53-2.49-7.32,1.89-13.35-.48-18.39-5.88-.78-.84-1.53-2.06-2.5-2.33-8.08-2.26-12.17-8.14-14.58-15.62L343,503a264.08,264.08,0,0,1,49.75,30c2.43,1.84,5.36,3.48,7.92.35,2.12-2.59,1.71-5-1.19-7.22-19.87-15-41.06-27.57-64.29-36.61-1.88-.74-2.86-1.23-2.39-3.82A75.61,75.61,0,0,0,334,471.44c-.22-14.44-2.4-28.64-5.47-42.75s-8.55-27.42-11.2-41.57c-.2-1.47-.34-3-.61-4.42-4-21-9.67-41.64-14.37-62.49a96,96,0,0,1,.14-20.2C302.9,296.66,302.78,293.91,301.1,291.12Z" transform="translate(-229.1 -101.1)"/><path class="cls-6" d="M664.9,280.16c27,0,51,1.73,73.83,10.93a111.49,111.49,0,0,1,12.56,6.05c2.2,1.22,3.47,1,5.05-.88,3.88-4.57,8-8.9,11.9-13.48,1.54-1.82,2.71-2.51,4.9-.9,4.43,3.25,9,6.34,13.6,9.3,2,1.3,2,2.5,1,4.46-7.52,14.52-6.77,29.22-.33,43.78,1.5,3.38.81,4.46-2.36,5.63-5.29,1.95-10.48,4.23-15.62,6.57-2.26,1-3.46.7-4.76-1.52-18.79-32.12-48.43-43.92-83.92-44.46-13-.2-26,.24-38.69,3.4a37.35,37.35,0,0,0-12.79,5.42c-9.91,7-9.39,19.72,1,25.91,5.95,3.54,12.59,5.2,19.29,6.5,6.2,1.21,12.5,1.88,18.71,3.07,4.49.86,6.59-.09,6.83-5.24.29-6.46,1.69-12.86,2.43-19.3.29-2.6,1.21-3.16,3.82-2.73,6.07,1,12.2,1.76,18.34,2.15,3.35.21,3.74,1.59,3.3,4.39-1,6.58-1.7,13.21-2.83,19.76-.54,3.11.32,3.92,3.41,4.26,21.33,2.37,42.6,5.18,62.9,12.74a93.15,93.15,0,0,1,13.05,6.18c25.63,14.42,24.35,47.2,5.91,63.16-11.43,9.89-25,15.23-39.48,18.05-39.59,7.68-78.74,7-117-7.22a68,68,0,0,1-11.75-5.41c-3-1.86-4.49-1.06-6.46,1.4-3.74,4.68-7.94,9-11.73,13.62-1.62,2-2.76,2.16-4.83.6-4.26-3.19-8.71-6.13-13.16-9.05-1.79-1.18-2.47-2.14-1.33-4.38,7.21-14.2,6.27-28.66.48-43-1.7-4.2-.72-5.75,3.26-7.1,5-1.71,9.88-3.92,14.72-6.12,2-.91,3.17-1,4.45,1.12C618.36,414.07,643.09,426,672,430.8a152.53,152.53,0,0,0,64.85-2.87,40.64,40.64,0,0,0,14-6.5c9.7-7.22,8.88-18.09-1.92-23.41-10.17-5-21.32-6.28-32.33-7.9-5.93-.87-11.92-1.27-17.86-2.07-2.7-.36-3.81.47-4.12,3.26-.81,7.27-2,14.51-2.85,21.77-.36,3-1.29,4.26-4.69,3.61a166.4,166.4,0,0,0-17.79-2.43c-3.09-.27-3.46-1.59-3.07-4.16.9-5.75,1.58-11.54,2.45-17.3,1.09-7.17,1.12-7-5.87-7.77-15.23-1.63-30.3-4.2-44.89-9.07a106.31,106.31,0,0,1-15.93-7.08c-29.7-15.79-26-58.19-2.44-73.17,12.71-8.07,26.76-11.63,41.35-13.51C649.69,281.06,658.69,280.67,664.9,280.16Z" transform="translate(-229.1 -101.1)"/><path class="cls-7" d="M386.06,549.75a33.4,33.4,0,0,0,6.94,6.16c4.47,3.79,8.55,8,13.52,11.24,2.79,3.09,5.63,6.11,9.5,7.91l0-.07c-.12.85.5,1.19,1.09,1.54,5.18,8.31,13.33,13.8,19.88,20.82,3.43,3.68,10.7,1.55,11.94-3.53,1-3.92,1.4-8.08,0-12.11,2.17-5.69,5.5-10.88,7.15-16.78l0,.05c1.1-.37,1.17-1.31,1.26-2.25q1.89-3.69,3.76-7.39c5-9,9.9-18,13.27-27.75,6.15-11.15,9.45-23.22,11.79-35.63.59-3.14-.61-3.74-3.45-3.16-3.61.73-7.38,1.47-9.26-3.13.09-5.71,4.88-5.27,8.44-6.45,17.2-1.43,33.3,2.52,48.71,9.9a23.65,23.65,0,0,0,7.06,2.28c3,.41,6.1,1.47,8,3.74,5.28,6.35,12.66,9.61,19.36,13.83,14.18,9,28.53,17.65,42.81,26.45.71.44,1.4.9,2.11,1.34,2.68,1.7,3.51,4.16,1.89,6.81s-4.34,2.7-7,1.09L575.52,526.6c-1.53-.94-3.1-1.8-5-2.92-.2,1.71-.34,3-.48,4.22-4.35,3.9-9.69-.22-14.84,1.87,3.31,3.84,7.65,5.41,11.82,7.08,5.85,2.33,6.77,4.71,3.11,9.55Q525.27,605.73,480.37,665a14.37,14.37,0,0,1-2.63,3c-2.1,1.54-4.4,1.7-6.35-.24-1.75-1.74-1.81-3.82-.46-5.91.18-.28.43-.51.62-.79,6.38-9.18,6.42-9.21-.13-18.5S458,624.3,448.91,618c-4.76-3.3-7.87-7.28-11.78-11-14.55-13.87-29.88-27-45.33-39.84-6.07-5.06-12.37-9.87-18.22-15.2a2.84,2.84,0,0,0-2.43-2.06l0,0c-.31-1-.7-1.86-2-1l.08.06c-.4-3-3-3.68-5.05-5h0c0-.72-.34-1-1-1l0,0-1.06-1.5L362,541l-.42-.07c-.77-.47-1.3-1.51-2.47-1.07l.08.08c-.09-1.05-.53-1.57-1.63-1.05-1.15-3.75-4.67-5.18-7.32-7.45-9.2-7.87-18.48-15.64-27.53-23.66-3.68-3.26-6.84-3.68-11-.72C298.94,516.24,285.07,523.8,273,534c-7.87,3.09-13.86,9-21.57,13.59l5.47,2.78c14.72,8.61,30.78,13.15,47.52,15.58,5.76.83,7.14,3,5,8.32q-3.54,8.79-7.26,17.5c-1.21,2.84-3.16,5.09-6.51,3.63s-3.16-4.38-2-7.27c1.32-3.41,2.63-6.83,4.17-10.14,1.29-2.79.56-3.57-2.44-4.08a134.58,134.58,0,0,1-46.08-16.78c-4-1.9-5.53-6.1-8.18-9.17-2.51-2.9,1-5.25,3.46-6.94Q266,526.5,287.5,512c9.22-6.21,18.15-12.87,28.2-17.76,2.74-1.34,5.48-2.55,8.45-.61.33.43.66.85,1,1.28a4.9,4.9,0,0,0,2,4.32c4,3.23,7.9,6.54,11.84,9.82l45.1,39-.05-.14,1.08,1,.06,0Zm75.79,66.91a154.4,154.4,0,0,1,19.38,23.41c2.36,3.62,3.85,3.21,6.1.18,6.05-8.14,12.2-16.21,18.32-24.3q25.9-34.23,51.86-68.42c1.78-2.33,2.31-3.4-.86-5a42.45,42.45,0,0,1-12.48-9.85c-1.93-2.13-4.07-4.15-3-7.4s4.19-3.42,6.85-4.21c4.9-1.44,10-1,15.15-1.61-11.9-7.17-23-15.33-35.46-21.23-9.21-4.36-18.66-7.9-28.81-9.35-1.79-.26-3.56-.64-3.56,1.84,0,6.42-2.56,12.35-3.37,18.6-7.39,21.78-18.33,41.94-28.4,62.5a191.82,191.82,0,0,0-12,30.06c-.64,2.13-1.2,4.07.88,5.89C455.64,610.65,458.71,613.69,461.85,616.66Z" transform="translate(-229.1 -101.1)"/><path class="cls-8" d="M481.79,479.22c-3.56,1.18-8.35.74-8.44,6.45-1.5,1-3.11,1.92-4.5,3.08C454,501.15,438,512.23,424.28,526c-4.61.69-7,4.8-10.63,7-2.68,1.61-4.86,2.78-7.32-.23-2.61-3.2-.65-5.29,1.61-7.12,10.68-8.62,21.43-17.15,32.17-25.69,1.94-1.55,4-3,5.87-4.58,3.08-2.62,5.25-4.71,4.53-10.12-.92-6.94,1.45-14.32,2.4-21.52q.06-6.35.11-12.7c-1.15-1.43-2.67-1.07-4.14-.81-19.39,3.33-35.43-2.28-47.63-18-1-1.27-1.86-2.35-3.56-2.25-2.32.15-3.61-1.45-5-2.87a56.15,56.15,0,0,0-28.57-16.32c-3.22-.71-6.77-2.08-5.58-6.07,1.1-3.69,4.34-4.12,8.22-3.1a64.56,64.56,0,0,1,24.09,11.51c1.11.87,2.23,2,4,1.92-2.39-19,1.18-37.75,1.48-56.6.2-12.57,1.48-25.14,1.85-37.75.33-11.59,1.29-23.16,1.89-34.74.13-2.57.84-5.42-4-4.48-2.9.57-4.46-2.39-4.93-5.26-2.66-16.24,10.33-31.9,26.85-32.18,13-.21,25.59,3.09,38.23,5.78,14.64,3.12,28.26,8.46,40.36,17.44,3.3,2.44,5.12,6.66,9.51,7.71h0a2.12,2.12,0,0,0,.94,2c6.21,9.37,11.12,19.27,13,30.48,2.65,15.47,1.41,30.77-1.95,46C513.56,374,507.3,394,496.85,412.36c-7.62,13.38-17.66,24.54-31.4,32-1.54.84-2.62,1.73-2.68,3.76a256.07,256.07,0,0,1-3,35.55c4-3,7.08-5.29,10.16-7.55,1.34-1,2.75-1.87,4.1-2.84,2.23-1.6,4.63-2.12,6.92-.41S482.69,477,481.79,479.22ZM489,406.07l1.17-1.08c5-8,8.12-16.75,11-25.53,7.3-22.21,13.95-44.55,9.92-68.51C508.34,294.53,501,281.23,486.92,272s-29.7-13.06-45.8-15.87c-7-1.22-13.94-3.11-21.11-3-8.51.09-16.24,5.2-18.44,12-.48,1.51-1.46,3.32,1.54,3.36,6.73.11,7.17.34,6.9,6.91-.71,16.89-1.73,33.76-2.76,50.63-.81,13.23-1.39,26.49-2,39.74-.73,15.42-1.9,30.87-1.15,46.34a27.29,27.29,0,0,0,7.61,18c11.36,11.9,27.41,15.5,42.52,9.2,7.27-3,14.56-6.37,19.81-12.72,1.3-.94,2.83-1.68,3.06-3.55l0,.05c4.53-3.84,8.48-8.09,10-14.06l0,.06c1.89-.22,2-1.63,2-3.07ZM400.93,271.72l-.34-.79a5,5,0,0,0-.4.7c0,.11.09.28.15.42Z" transform="translate(-229.1 -101.1)"/><path class="cls-7" d="M639.23,703.35a46,46,0,0,1-7.94,8.72q-1.26-6.18-2.54-12.35c-.1-.43,0-1.07-.78-.83l.1.08c.5-1.87-.18-3.6-.59-5.36q-7.37-32.05-17.38-63.37C604.32,612.08,599,593.77,592,576c.12-3.72-4.06-7.37-.19-11.15,4.61-2.22,6.77.17,8.13,4.24C614.81,613.33,629.58,657.59,639.23,703.35Z" transform="translate(-229.1 -101.1)"/><path class="cls-8" d="M483,241c.87,2,3,2.56,4.52,3.76,2.36,1.83,4.65,3.62,2.39,6.88s-4.95,3-7.76.88a186.28,186.28,0,0,0-32.6-19.12,201.51,201.51,0,0,0-63.73-18.26c-3.84-.42-6.18-2.13-6.74-6,1.9-2.91,4.16-3.86,7.94-3.37A220.09,220.09,0,0,1,480.7,240.1,11.39,11.39,0,0,0,483,241Z" transform="translate(-229.1 -101.1)"/><path class="cls-5" d="M507,277.05a2.12,2.12,0,0,1-.94-2A2.06,2.06,0,0,1,507,277.05Z" transform="translate(-229.1 -101.1)"/><path class="cls-3" d="M563.21,788q-21.56,24.22-43.1,48.45c-3.2,3.61-6.42,7.21-9.72,10.73-1.58,1.69-1.54,2.75.32,4.4q18.48,16.4,36.7,33.08c2.58,2.37,3.81,1.16,5.56-.8q42.66-47.57,85.33-95.09A94.59,94.59,0,0,1,649,778.44c5.38,3.23,10.89,6.29,14.76,11.47.61,2.39,1.42,4.75,1.82,7.17,1.33,8.11,3.24,16.29-1.73,23.95-7.52,10.34-15.39,20.39-23.85,30l.08-.07A1,1,0,0,0,639,852l.06-.06A1,1,0,0,0,638,853l.07-.06c-.84,0-1.71-.12-2,1a17.48,17.48,0,0,1-5.26,5.19c-19.47,12.11-39.29,23.58-60.18,33.12-10.87,5-21.67,10.12-33.08,13.78a67.14,67.14,0,0,1-16.84-2.58c-1.42-.41-2.8-1-4,.37-12.81,4.92-19.48,2.57-27.36-9.67.77-5.65-1.93-8.68-7.07-10.83-13-5.44-26.43-8.89-40.19-11.46l.08,0a1.47,1.47,0,0,0-1.62-1l.08,0c-.53-.34-1.06-.68-1.58-1l.06.05a1,1,0,0,0-1.13-1l.07.06c-3-4.1-6.36-8-6.14-13.62.09-2.26-1.89-2.89-3.43-3.79l-26.52-15.36,68.2-.09c.28,2.09.58,4.17,2.77,5.42,1.47-1.77,1-3.63,1-5.39l21.43-.2c1.81,0,4.45.5,5.07-1.23,2.43-6.71,6.26-12.55,9.85-18.61,1-1.68,1.19-3.42,3.33-4.09,1.15-.35,2.34-1.24,2.25-2.41-.27-3.77,2.65-4.68,5.06-5.95,3.53-1.84,7.12-3.57,10.79-5.13C541.93,794.25,552.23,790.09,563.21,788Z" transform="translate(-229.1 -101.1)"/><path class="cls-7" d="M537.53,906c11.41-3.66,22.21-8.82,33.08-13.78,20.89-9.54,40.71-21,60.18-33.12a17.48,17.48,0,0,0,5.26-5.19c.81,0,1.89.47,2-1L638,853c.75,0,1.42,0,1.08-1.06L639,852c.92.23,1.53.13,1.07-1.06L640,851c.6.71,1.16.27,1.64-.12,8.73-7,16.43-14.85,21.32-25.11a6.84,6.84,0,0,0,.89-4.75c5-7.66,3.06-15.84,1.73-23.95-.4-2.42-1.21-4.78-1.82-7.17-.47-1.93-.89-3.88-1.42-5.8-.78-2.87.12-5.1,2.88-6,3-1,5.14.4,6.08,3.46,7.59,24.65,9.26,45.67-16.14,70-15.53,14.84-34.33,25-52.93,35.33-17.56,9.77-36,17.76-54.36,25.77-7,2.51-14.1,4.93-21.08,7.58-3.34,1.26-6.08,1-7.29-2.61s1.26-5.07,4.17-6.14c2.64-1,5.22-2.09,7.83-3.14A12.42,12.42,0,0,0,537.53,906Z" transform="translate(-229.1 -101.1)"/><path class="cls-7" d="M652.18,773.71l5.42-6.22C658.34,771.78,656.66,774,652.18,773.71Z" transform="translate(-229.1 -101.1)"/><path class="cls-2" d="M305.11,274c-.1.82.06,1.78-1.09,2C304.39,275.38,304.75,274.7,305.11,274Z" transform="translate(-229.1 -101.1)"/><path class="cls-1" d="M317.11,258a2.2,2.2,0,0,1-1.58,2.07Z" transform="translate(-229.1 -101.1)"/><path class="cls-1" d="M318.09,257l-1,1.09Z" transform="translate(-229.1 -101.1)"/><path class="cls-1" d="M319.06,256c0,.71-.36,1-1,1.07C318.37,256.71,318.72,256.36,319.06,256Z" transform="translate(-229.1 -101.1)"/><path class="cls-2" d="M306.11,272.69l-1.05,1.41Z" transform="translate(-229.1 -101.1)"/><path class="cls-1" d="M1009.86,334.12c-1.31-.49-.61-1.46-.56-2.29C1009.49,332.6,1009.67,333.36,1009.86,334.12Z" transform="translate(-229.1 -101.1)"/><path class="cls-9" d="M470.11,836.19l-68.2.09-14.11,0c-8-.07-15.93-.23-23.9-.19-3.27,0-5.72-.9-5.77-4.51s2.47-4.69,5.68-4.7c3.82,0,7.64-.1,11.45-.15l10.75,0q51.89.06,103.77.16c2.52,0,4-.78,4.88-3.19a34.18,34.18,0,0,1,3-5.71c1.44-2.33,3.56-3.89.83-7.36-2.35-3,.8-5.7,3.56-7.53,2.4-.83,4.91-1.69,4.49-5-.75-5.91-.1-12-1.69-17.79-.15-11.15-2-22.15-3.18-33.2-.7-6.44-1.92-12.81-2.61-19.25-.46-4.3-1.94-6.2-6.8-6.14q-28.72.38-57.47-.11c-43.79-.81-87.58-.84-131.38-1-1.64,0-3.28-.43-4.94-.52-3.19-.19-5.26-1.87-4.91-5s2.75-4.29,5.82-4.27c9,.07,18-.07,27,.11,43.46.88,86.92.94,130.38,1.11,14.48.06,28.95.55,43.42.74,4.26.06,6.31,2.05,6.9,6.21,1.37,9.7,2.94,19.36,4.43,29l3.66,37.5c-.23,10.53-.23,10.54,9.17,6,1-.5,2-1.13,3-1.7,1.71-.62,3.42-1.2,5.11-1.87,13.59-5.35,27.35-10.13,41.85-12.41a95.74,95.74,0,0,1-11,12.24c-11,2.13-21.28,6.29-31.51,10.64-3.67,1.56-7.26,3.29-10.79,5.13-2.41,1.27-5.33,2.18-5.06,5.95.09,1.17-1.1,2.06-2.25,2.41-2.14.67-2.34,2.41-3.33,4.09-3.59,6.06-7.42,11.9-9.85,18.61-.62,1.73-3.26,1.21-5.07,1.23l-21.44.2Z" transform="translate(-229.1 -101.1)"/><path class="cls-2" d="M386,826.8l-10.75,0c-13.86-12.68-27.75-25.32-40.33-39.34a414.65,414.65,0,0,1-70.69-108.75c-.6-1.34-1.51-2.63-1.19-4.24,5.38,6.4,8.81,14,13.11,21.11,10.46,17.2,20.62,34.59,31.11,51.78,18.77,30.79,43.81,55.53,73.67,75.55C382.71,824.07,384.32,825.49,386,826.8Z" transform="translate(-229.1 -101.1)"/><path class="cls-2" d="M387.8,836.32l14.11,0,26.52,15.36c1.54.9,3.52,1.53,3.43,3.79C431.64,861,435,865,438,869.05c-1.3.52-2.22-.37-3.19-.93A367.51,367.51,0,0,1,387.8,836.32Z" transform="translate(-229.1 -101.1)"/><path class="cls-2" d="M442,871.83c13.76,2.57,27.23,6,40.19,11.46,5.14,2.15,7.84,5.18,7.07,10.83A273.35,273.35,0,0,1,442,871.83Z" transform="translate(-229.1 -101.1)"/><path class="cls-10" d="M537.53,906a12.42,12.42,0,0,1-6,2.29c-5-1.22-10.1-2.34-14.85-4.5,1.23-1.4,2.61-.78,4-.37A67.14,67.14,0,0,0,537.53,906Z" transform="translate(-229.1 -101.1)"/><path class="cls-2" d="M261.17,670.81l.91,1.7A1.7,1.7,0,0,1,261.17,670.81Z" transform="translate(-229.1 -101.1)"/><path class="cls-2" d="M262.05,672.45l1,2.06A2,2,0,0,1,262.05,672.45Z" transform="translate(-229.1 -101.1)"/><path class="cls-2" d="M437.93,869a1,1,0,0,1,1.13,1C438.38,870,437.83,869.87,437.93,869Z" transform="translate(-229.1 -101.1)"/><path class="cls-2" d="M439,869.91c.52.35,1.05.69,1.58,1C439.84,870.93,439.21,870.75,439,869.91Z" transform="translate(-229.1 -101.1)"/><path class="cls-2" d="M440.5,870.9a1.47,1.47,0,0,1,1.62,1Z" transform="translate(-229.1 -101.1)"/><path class="cls-8" d="M325.13,495c-.32-.43-.65-.85-1-1.28-.72-17.24,1.05-34.54-2.39-51.75-4.87-24.35-13-47.75-19.75-71.56-5.34-18.93-9.38-38.08-9.64-57.83-.06-4.81.47-9.62.85-14.43.45-5.81,1.84-7,7.88-7,1.68,2.79,1.8,5.54,1.38,8.89a96.69,96.69,0,0,0-.15,20.2c0,3.32-.63,6.75,0,9.94,2.61,13,4.79,26.14,8.9,38.78,2,6.08,2.39,12.69,6.08,18.19,2.65,14.15,8.14,27.52,11.2,41.57S333.77,457,334,471.44a75.61,75.61,0,0,1-1.18,14.33c-.47,2.59.51,3.08,2.39,3.82,23.23,9,44.42,21.65,64.29,36.61,2.9,2.18,3.31,4.63,1.19,7.22-2.56,3.13-5.49,1.49-7.92-.35A264.08,264.08,0,0,0,343,503Z" transform="translate(-229.1 -101.1)"/><path class="cls-11" d="M574.26,775.72c-14.5,2.28-28.26,7.06-41.85,12.41-1.69.67-3.4,1.25-5.11,1.87-4.28-.79-8.53-1.69-12.15-4.34l-3.66-37.5c1.37-5,3-9.77,7.42-13,.7-.39,1.36-1.07,2.09-1.13a51.34,51.34,0,0,1,29.63,6.36c7.39,4.06,13.82,9.54,20.46,14.75,4.56,3.57,5.53,6.5,3.09,11.56-1.15,2.37-2.73,5.81,1.49,7.58Z" transform="translate(-229.1 -101.1)"/><path class="cls-9" d="M311.46,596.13c9-.38,16.85,3.42,24.67,7,49.24,22.81,97.69,47.18,145.13,73.53.44.24.9.44,1.33.7,2.85,1.73,5.62,3.69,3.32,7.5-2.08,3.43-5.14,2.37-7.89.9-6.89-3.7-13.71-7.54-20.57-11.29q-64.6-35.37-131.78-65.62c-5.71-2.57-11.66-4.82-18.31-3.38a4.69,4.69,0,0,1-6-3.91c-.54-3.21,1.72-4.9,4.61-5.41A31.28,31.28,0,0,1,311.46,596.13Z" transform="translate(-229.1 -101.1)"/><path class="cls-8" d="M575.67,774.3c-4.22-1.77-2.64-5.21-1.49-7.58,2.44-5.06,1.47-8-3.09-11.56-6.64-5.21-13.07-10.69-20.46-14.75A51.34,51.34,0,0,0,521,734.05c-.73.06-1.39.74-2.09,1.13-3.18-.14-6.38-.83-6.52-4.62-.16-4.1,3.34-5,6.54-5.37A58,58,0,0,1,554,731.72c1,.55,2.09,1,3.14,1.47l7.54,4.76c6.46,5.49,12.88,11,19.38,16.45a7.31,7.31,0,0,1,2.93,7Q581.35,767.85,575.67,774.3Z" transform="translate(-229.1 -101.1)"/><path class="cls-10" d="M592,576c7,17.77,12.3,36.08,18.08,54.24q10,31.34,17.38,63.37c.41,1.76,1.09,3.49.59,5.36-5.19-3.14-7.66-8.3-9.27-13.68-6.77-22.58-13-45.32-19.94-67.84C594.66,603.89,590.93,590.38,592,576Z" transform="translate(-229.1 -101.1)"/><path class="cls-10" d="M256.93,550.35l-5.47-2.78c7.71-4.55,13.7-10.5,21.57-13.59C268.51,540.27,262,544.64,256.93,550.35Z" transform="translate(-229.1 -101.1)"/><path class="cls-10" d="M504.85,780.42c1.59,5.83.94,11.88,1.69,17.79.42,3.27-2.09,4.13-4.49,5Q503.45,791.8,504.85,780.42Z" transform="translate(-229.1 -101.1)"/><path class="cls-10" d="M558.4,647.5c1.75,6.43,1.64,6.74-3.21,8.27C556.31,652.88,557.29,650.37,558.4,647.5Z" transform="translate(-229.1 -101.1)"/><path class="cls-10" d="M564.72,738l-7.54-4.76C560.67,733.23,564.74,732.35,564.72,738Z" transform="translate(-229.1 -101.1)"/><path class="cls-8" d="M364.17,543.92c2,1.29,4.65,2,5.05,5C366.69,548.09,364.56,546.89,364.17,543.92Z" transform="translate(-229.1 -101.1)"/><path class="cls-8" d="M371.15,549.91a2.84,2.84,0,0,1,2.43,2.06C372,552.2,370.76,552,371.15,549.91Z" transform="translate(-229.1 -101.1)"/><path class="cls-8" d="M369.14,548.83c1.28-.81,1.67.06,2,1C369.7,551,369.39,549.94,369.14,548.83Z" transform="translate(-229.1 -101.1)"/><path class="cls-8" d="M359.07,539.9c1.17-.44,1.7.6,2.47,1.07A1.58,1.58,0,0,1,359.07,539.9Z" transform="translate(-229.1 -101.1)"/><path class="cls-10" d="M628,698.89c.81-.24.68.4.78.83Z" transform="translate(-229.1 -101.1)"/><path class="cls-8" d="M363.13,542.92c.68,0,1.06.27,1,1C363.05,544.36,362.73,544,363.13,542.92Z" transform="translate(-229.1 -101.1)"/><path class="cls-8" d="M362.09,541.45l1.06,1.5C361.9,543.08,361.71,542.46,362.09,541.45Z" transform="translate(-229.1 -101.1)"/><path class="cls-8" d="M357.52,538.93c1.1-.52,1.54,0,1.63,1.05Z" transform="translate(-229.1 -101.1)"/><path class="cls-12" d="M424.28,526c13.71-13.8,29.69-24.88,44.57-37.28,1.39-1.16,3-2.06,4.5-3.08,1.88,4.6,5.65,3.86,9.26,3.13,2.84-.58,4,0,3.45,3.16-2.34,12.41-5.64,24.48-11.79,35.63-9.1,6.81-15.36,15-13.32,27.26,0,.16,0,.33.05.49l-3.76,7.4c-.77.55-1.58,1.08-1.26,2.24l0-.05c-4.95,2.76-10,5.15-15.94,4.37l-11.8-13.64c4.24-2.55,4.53-5.67-.5-8.61-1.29-.76-1.78-1.48-1.48-2.66,1.38-5.41-1.37-7.33-6.22-7.56C420.15,532.71,422.74,529.58,424.28,526Z" transform="translate(-229.1 -101.1)"/><path class="cls-13" d="M420.07,536.83c4.85.23,7.6,2.15,6.22,7.56-.3,1.18.19,1.9,1.48,2.66,5,2.94,4.74,6.06.5,8.61l11.8,13.64,8.79,12.41c1.43,4,1,8.19,0,12.11-1.24,5.08-8.51,7.21-11.94,3.53-6.55-7-14.7-12.51-19.88-20.82-.15-.67-.27-1.35-1.09-1.54l0,.07c-.56-4.49-3.06-8.8-1.7-13.45,1-3.41-.69-3.64-3.24-3.3a5.88,5.88,0,0,1-5.26-3.17c2.19-4.46-2.6-7.1-2.88-11.08-.39-5.65.44-7.12,6.21-7.21C412.79,536.79,416.43,536.83,420.07,536.83Z" transform="translate(-229.1 -101.1)"/><path class="cls-12" d="M384.05,548.08l-45.1-39a9.9,9.9,0,0,1,4.95-3.43c2.41,7.48,6.5,13.36,14.58,15.62,1,.27,1.72,1.49,2.5,2.33,5,5.4,11.07,7.77,18.39,5.88,2.39-.62,4.44-.48,3.53,2.49C381.2,537.59,383.29,542.75,384.05,548.08Z" transform="translate(-229.1 -101.1)"/><path class="cls-2" d="M317.32,387.12c-3.69-5.5-4.1-12.11-6.08-18.19-4.11-12.64-6.29-25.77-8.9-38.78-.64-3.19,0-6.62,0-9.94,4.71,20.85,10.4,41.47,14.38,62.49C317,384.16,317.12,385.65,317.32,387.12Z" transform="translate(-229.1 -101.1)"/><path class="cls-12" d="M405.82,555.14a5.88,5.88,0,0,0,5.26,3.17c-.08,3.69-2.68,6.08-4.56,8.84-5-3.2-9-7.45-13.52-11.24C397.22,554.79,401.66,557.24,405.82,555.14Z" transform="translate(-229.1 -101.1)"/><path class="cls-10" d="M343.9,505.66a9.9,9.9,0,0,0-4.95,3.43c-3.94-3.28-7.86-6.59-11.84-9.82a4.9,4.9,0,0,1-2-4.32L343,503C343.31,503.91,343.6,504.79,343.9,505.66Z" transform="translate(-229.1 -101.1)"/><path class="cls-2" d="M453,451.06q0,6.35-.11,12.7a33.2,33.2,0,0,1-3.33-2.91C446.08,457,447.46,453.08,453,451.06Z" transform="translate(-229.1 -101.1)"/><path class="cls-12" d="M386.06,549.75l-.92-.76C385.12,549.64,385.43,549.88,386.06,549.75Z" transform="translate(-229.1 -101.1)"/><path class="cls-12" d="M385.08,548.94l-1.08-1Z" transform="translate(-229.1 -101.1)"/><path class="cls-3" d="M492,509.35c.81-6.25,3.37-12.18,3.37-18.6,0-2.48,1.77-2.1,3.56-1.84,10.15,1.45,19.6,5,28.81,9.35,12.47,5.9,23.56,14.06,35.46,21.23-5.14.57-10.25.17-15.15,1.61-2.66.79-5.79.93-6.85,4.21s1.09,5.27,3,7.4a42.45,42.45,0,0,0,12.48,9.85c3.17,1.57,2.64,2.64.86,5q-26,34.14-51.86,68.42c-6.12,8.09-12.27,16.16-18.32,24.3-2.25,3-3.74,3.44-6.1-.18a154.4,154.4,0,0,0-19.38-23.41c2.42-5.34,4.26-10.23,0-16.07-3.41-4.64-2.12-10.5.18-15.76,5.38-12.32,10.59-24.72,16.19-36.94,2.95-6.44,4.13-14.12,9.54-18.93,3.94-3.49,4.82-7,4.47-11.65C492,514.67,492,512,492,509.35Z" transform="translate(-229.1 -101.1)"/><path class="cls-10" d="M492,509.35c.08,2.66.05,5.32.25,8,.35,4.62-.53,8.16-4.47,11.65-5.41,4.81-6.59,12.49-9.54,18.93-5.6,12.22-10.81,24.62-16.19,36.94-2.3,5.26-3.59,11.12-.18,15.76,4.29,5.84,2.45,10.73,0,16.07-3.14-3-6.21-6-9.46-8.86-2.08-1.82-1.52-3.76-.88-5.89a191.82,191.82,0,0,1,12-30.06C473.62,551.29,484.56,531.13,492,509.35Z" transform="translate(-229.1 -101.1)"/><path class="cls-10" d="M461,555.34c0-.16,0-.33-.05-.49-2-12.25,4.22-20.45,13.32-27.26C470.9,537.34,466,546.36,461,555.34Z" transform="translate(-229.1 -101.1)"/><path class="cls-2" d="M448.86,581.71l-8.79-12.41c5.93.78,11-1.61,15.94-4.37C454.36,570.83,451,576,448.86,581.71Z" transform="translate(-229.1 -101.1)"/><path class="cls-10" d="M406.52,567.15c1.88-2.76,4.48-5.15,4.56-8.84,2.55-.34,4.23-.11,3.24,3.3-1.36,4.65,1.14,9,1.7,13.45C412.15,573.26,409.31,570.24,406.52,567.15Z" transform="translate(-229.1 -101.1)"/><path class="cls-2" d="M456,565c-.32-1.16.49-1.69,1.26-2.24C457.15,563.67,457.08,564.61,456,565Z" transform="translate(-229.1 -101.1)"/><path class="cls-10" d="M416,575c.82.19.94.87,1.09,1.54C416.48,576.18,415.86,575.84,416,575Z" transform="translate(-229.1 -101.1)"/><path class="cls-11" d="M474,426.56c-5.25,6.35-12.54,9.69-19.81,12.72-15.11,6.3-31.16,2.7-42.52-9.2a27.29,27.29,0,0,1-7.61-18c-.75-15.47.42-30.92,1.15-46.34.63-13.25,1.21-26.51,2-39.74,1-16.87,2.05-33.74,2.76-50.63.27-6.57-.17-6.8-6.9-6.91-3,0-2-1.85-1.54-3.36,2.2-6.85,9.93-12,18.44-12,7.17-.07,14.11,1.82,21.11,3,16.1,2.81,31.88,6.74,45.8,15.87S508.34,294.53,511.1,311c4,24-2.62,46.3-9.92,68.51-2.89,8.78-6.05,17.57-11,25.53L489,406.07l.07-.08a3.61,3.61,0,0,0-2,3.07l0-.06c-4.19,4.09-8.23,8.28-10,14.06l0-.05C474.76,423.08,474.2,424.66,474,426.56Zm-24-14.38c8.87-1,17.71-5.34,26-11.12,2.8-1.95,4.65-4.31,2.6-7.44s-5.07-2.35-7.81-.36a55.6,55.6,0,0,1-13,7.26c-11.84,4.5-13.76,3.58-17.95-8.58a7.24,7.24,0,0,0-.87-1.79,4,4,0,0,0-4.73-1.82,4.33,4.33,0,0,0-3.44,3.78C429.51,401.71,438.88,412.27,450,412.18Zm24-77.91c0-5-.05-10,0-15,.05-3.33-.52-6.23-4.64-6.17-3.78.06-4.41,2.75-4.4,5.91.05,11-.1,22,.07,33A26.26,26.26,0,0,0,470,366.41c1.83,2.68,4.75,3.7,7.42,2.06s2.06-4.63.47-7a22.56,22.56,0,0,1-3.82-11.69C473.9,344.6,474.05,339.43,474,334.27Zm22.06-15.1c4.59,0,6.93-2,7-5.95a6.85,6.85,0,0,0-7-7.33c-4.71,0-7.82,2.62-7.74,6.57C488.38,316.25,491.82,319.22,496.1,319.17Zm-53.74-18.12a6.84,6.84,0,0,0-6.15,6.63c.12,3,4.69,8.13,7.31,7.77,3.87-.53,5.49-3.71,6.17-6.94C450.31,305.62,445.28,300.93,442.36,301.05Z" transform="translate(-229.1 -101.1)"/><path class="cls-2" d="M477,423.06c1.8-5.78,5.84-10,10-14.06C485.52,415,481.57,419.22,477,423.06Z" transform="translate(-229.1 -101.1)"/><path class="cls-2" d="M474,426.56c.18-1.9.74-3.48,3.06-3.55C476.85,424.88,475.32,425.62,474,426.56Z" transform="translate(-229.1 -101.1)"/><path class="cls-2" d="M487,409.06a3.61,3.61,0,0,1,2-3.07C489,407.43,488.92,408.84,487,409.06Z" transform="translate(-229.1 -101.1)"/><path class="cls-11" d="M400.93,271.72l-.59.33c-.06-.14-.19-.31-.15-.42a5,5,0,0,1,.4-.7Z" transform="translate(-229.1 -101.1)"/><path class="cls-2" d="M489,406.07l1.17-1.08Z" transform="translate(-229.1 -101.1)"/><path class="cls-10" d="M663.86,821a6.84,6.84,0,0,1-.89,4.75c-4.89,10.26-12.59,18.13-21.32,25.11-.48.39-1,.83-1.64.12C648.47,841.42,656.34,831.37,663.86,821Z" transform="translate(-229.1 -101.1)"/><path class="cls-10" d="M470.11,836.19l3.8,0c-.06,1.76.44,3.62-1,5.39C470.69,840.36,470.39,838.28,470.11,836.19Z" transform="translate(-229.1 -101.1)"/><path class="cls-10" d="M638.07,852.94c-.13,1.44-1.21.92-2,1C636.36,852.82,637.23,852.9,638.07,852.94Z" transform="translate(-229.1 -101.1)"/><path class="cls-10" d="M640.09,850.94c.46,1.19-.15,1.29-1.07,1.06A1,1,0,0,1,640.09,850.94Z" transform="translate(-229.1 -101.1)"/><path class="cls-10" d="M639.08,851.94c.34,1.06-.33,1.1-1.08,1.06A1,1,0,0,1,639.08,851.94Z" transform="translate(-229.1 -101.1)"/><path class="cls-10" d="M515.15,785.66c3.62,2.65,7.87,3.55,12.15,4.34-1,.57-1.95,1.2-3,1.7C514.92,796.2,514.92,796.19,515.15,785.66Z" transform="translate(-229.1 -101.1)"/><path class="cls-7" d="M450,412.18c-11.16.09-20.53-10.47-19.22-20.07a4.33,4.33,0,0,1,3.44-3.78,4,4,0,0,1,4.73,1.82,7.24,7.24,0,0,1,.87,1.79c4.19,12.16,6.11,13.08,17.95,8.58a55.6,55.6,0,0,0,13-7.26c2.74-2,5.69-2.87,7.81.36s.2,5.49-2.6,7.44C467.75,406.84,458.91,411.18,450,412.18Z" transform="translate(-229.1 -101.1)"/><path class="cls-8" d="M474.05,334.27c0,5.16-.15,10.33,0,15.48a22.56,22.56,0,0,0,3.82,11.69c1.59,2.4,2.29,5.33-.47,7s-5.59.62-7.42-2.06A26.26,26.26,0,0,1,465.09,352c-.17-11,0-22-.07-33,0-3.16.62-5.85,4.4-5.91,4.12-.06,4.69,2.84,4.64,6.17C474,324.27,474,329.27,474.05,334.27Z" transform="translate(-229.1 -101.1)"/><path class="cls-7" d="M496.1,319.17c-4.28.05-7.72-2.92-7.8-6.71-.08-3.95,3-6.59,7.74-6.57a6.85,6.85,0,0,1,7,7.33C503,317.14,500.69,319.13,496.1,319.17Z" transform="translate(-229.1 -101.1)"/><path class="cls-7" d="M442.36,301.05c2.92-.12,7.95,4.57,7.33,7.46-.68,3.23-2.3,6.41-6.17,6.94-2.62.36-7.19-4.73-7.31-7.77A6.84,6.84,0,0,1,442.36,301.05Z" transform="translate(-229.1 -101.1)"/></svg>